<svg xmlns="http://www.w3.org/2000/svg" xmlns:xlink="http://www.w3.org/1999/xlink"><defs><style>
    .sprite-symbol-usage {display: none;}
    .sprite-symbol-usage:target {display: inline;}
  </style><symbol viewBox="0 0 32 9" fill="none" id="icon-arrow">
<path fill-rule="evenodd" clip-rule="evenodd" d="M28.1716 0.964468L31.3536 4.14645C31.5488 4.34171 31.5488 4.65829 31.3536 4.85355L28.1716 8.03554C27.9763 8.2308 27.6597 8.2308 27.4645 8.03554C27.2692 7.84027 27.2692 7.52369 27.4645 7.32843L29.7929 5L3.656e-07 5L2.78178e-07 4L29.7929 4L27.4645 1.67157C27.2692 1.47631 27.2692 1.15973 27.4645 0.964468C27.6597 0.769206 27.9763 0.769206 28.1716 0.964468Z" fill="#0E406A" />
</symbol><symbol viewBox="0 0 24 24" fill="none" id="icon-user">
<path d="M11.46 13.73C13.0119 13.73 14.27 12.4719 14.27 10.92C14.27 9.36806 13.0119 8.10999 11.46 8.10999C9.9081 8.10999 8.65002 9.36806 8.65002 10.92C8.65002 12.4719 9.9081 13.73 11.46 13.73Z" stroke="#292D32" stroke-width="1.5" stroke-linecap="round" stroke-linejoin="round" />
<path d="M16.65 20.2C16.65 17.87 14.33 15.97 11.46 15.97C8.59002 15.97 6.27002 17.86 6.27002 20.2" stroke="#292D32" stroke-width="1.5" stroke-linecap="round" stroke-linejoin="round" />
<path d="M21 12.5C21 17.75 16.75 22 11.5 22C6.25 22 2 17.75 2 12.5C2 7.25 6.25 3 11.5 3C12.81 3 14.06 3.25999 15.2 3.73999C15.07 4.13999 15 4.56 15 5C15 5.75 15.21 6.46 15.58 7.06C15.78 7.4 16.04 7.70997 16.34 7.96997C17.04 8.60997 17.97 9 19 9C19.44 9 19.86 8.92998 20.25 8.78998C20.73 9.92998 21 11.19 21 12.5Z" stroke="#292D32" stroke-width="1.5" stroke-linecap="round" stroke-linejoin="round" />
<path d="M23 5C23 5.32 22.96 5.62999 22.88 5.92999C22.79 6.32999 22.63 6.72 22.42 7.06C21.94 7.87 21.17 8.49998 20.25 8.78998C19.86 8.92998 19.44 9 19 9C17.97 9 17.04 8.60997 16.34 7.96997C16.04 7.70997 15.78 7.4 15.58 7.06C15.21 6.46 15 5.75 15 5C15 4.56 15.07 4.13999 15.2 3.73999C15.39 3.15999 15.71 2.64002 16.13 2.21002C16.86 1.46002 17.88 1 19 1C20.18 1 21.25 1.51002 21.97 2.33002C22.61 3.04002 23 3.98 23 5Z" stroke="#292D32" stroke-width="1.5" stroke-miterlimit="10" stroke-linecap="round" stroke-linejoin="round" />
<path d="M20.49 4.97998H17.51" stroke="#292D32" stroke-width="1.5" stroke-miterlimit="10" stroke-linecap="round" stroke-linejoin="round" />
<path d="M19 3.52002V6.51001" stroke="#292D32" stroke-width="1.5" stroke-miterlimit="10" stroke-linecap="round" stroke-linejoin="round" />
</symbol></defs><use id="icon-arrow-usage" xlink:href="#icon-arrow" class="sprite-symbol-usage" /><use id="icon-user-usage" xlink:href="#icon-user" class="sprite-symbol-usage" /></svg>